<svg xmlns="http://www.w3.org/2000/svg" viewBox="0 0 689.47368 786.84211"><defs><style>.a{fill:#fff;}.b{fill:#536972;}.c{fill:none;}</style></defs><title>auckland_university-of-technology-logo-freelogovectors.net</title><rect class="a" x="32.72529" y="27.47146" width="622.86144" height="731.05427"/><path class="b" d="M744.08268,706.22962h-4.59385v24.07805h3.6434c7.234,0,9.76851-2.00653,9.76851-12.039C752.90074,709.081,750.78866,706.22962,744.08268,706.22962Z" transform="translate(-195.26316 -6.57895)"/><polygon class="b" points="375.521 715.861 384.286 715.861 379.956 700.073 375.521 715.861"/><polygon class="b" points="456.415 715.861 465.18 715.861 460.85 700.073 456.415 715.861"/><path class="b" d="M220.80727,661.71689V772.60274H859.19273V661.71693Zm127.04345,76.24717h-7.86761L325.568,715.04768v22.91638h-7.86761V698.83719h7.02277l15.26,24.1309V698.83723h7.86761Zm40.13011,0H363.37474V698.83719H387.5056v7.70924H371.66477v7.2868H382.859v7.60362H371.40076v8.818h16.58007Zm51.53549,0h-9.08206l-6.60035-24.81729-7.12836,24.81729h-9.08209l-9.87411-39.12687h8.55405l6.33633,27.66868,7.18118-27.66864h8.44844l7.02277,27.66864,6.75875-27.66864h8.13163Zm69.96367,0H480.12166v-5.75549l17.10811-25.66214H480.70249v-7.7092h26.8238v5.86107L490.735,730.25482H509.48Zm38.1764,0H522.94471V698.83719h24.18366v7.70924H531.28754v7.2868h11.14138v7.60362H531.12913v8.818h16.52728Zm35.95869,0-2.53455-8.44848h-11.775l-2.53455,8.44848h-8.39562l12.51427-39.23246h9.34607l12.09184,39.23246Zm46.09683,0h-24.8701V698.83719h8.07882v31.68166h16.79128Zm34.797,0-2.53455-8.44848H650.09378l-2.53455,8.44848h-8.29l12.51427-39.23246h9.34607l12.09184,39.23246Zm51.37707,0H708.0712L693.656,715.04768v22.91638h-7.92041V698.83719h7.07555l15.26,24.1309V698.83723H715.886Zm28.35511,0H731.30442V698.83719h12.88389c11.93344,0,17.0025,5.28027,17.0025,19.43138s-4.80507,19.69557-16.94972,19.69557Z" transform="translate(-195.26316 -6.57895)"/><polygon points="193.193 453.22 199.001 453.22 196.097 437.696 193.193 453.22"/><path d="M371.71758,334.49815,326.4128,536.04633h36.32831l6.49474-34.005h44.35433l6.54755,34.005h37.754L412.53412,334.49815Zm3.53778,136.44235,15.84083-84.90685h.528L407.465,470.9405Z" transform="translate(-195.26316 -6.57895)"/><polygon points="370.98 495.462 333.173 495.462 333.173 327.919 295.366 327.919 295.366 497.997 326.837 529.467 377.263 529.467 408.734 497.997 408.734 327.919 370.98 327.919 370.98 495.462"/><polygon points="445.009 361.977 482.816 361.977 482.816 529.467 520.623 529.467 520.623 361.977 558.377 361.977 558.377 327.919 445.009 327.919 445.009 361.977"/><path d="M220.80727,27.39726V661.71689H859.19273V27.39726Zm245.63847,515.5134a10.5605,10.5605,0,0,1-8.554,4.11861H420.08492a10.93018,10.93018,0,0,1-10.56055-8.87087l-5.06908-24.97568H378.0539l-4.805,25.08131a10.983,10.983,0,0,1-10.82456,8.87087H326.4128a10.93017,10.93017,0,0,1-10.56055-13.35909l45.35758-201.54816a10.93017,10.93017,0,0,1,10.56055-8.60685h40.81654a10.98294,10.98294,0,0,1,10.56055,8.60685l45.35758,201.54816A10.983,10.983,0,0,1,466.44574,542.91066Zm148.53419-38.33482a10.87734,10.87734,0,0,1-3.43218,7.70924l-31.68166,31.68166a10.5606,10.5606,0,0,1-7.762,3.221h-50.0042a11.08863,11.08863,0,0,1-7.762-3.221l-31.68166-31.68166a10.87734,10.87734,0,0,1-3.11536-7.7092V334.49815a10.983,10.983,0,0,1,10.983-10.983h37.754a10.983,10.983,0,0,1,11.03566,10.93l.00012.05293V491.05835h15.84083V334.49815a10.983,10.983,0,0,1,10.983-10.983h37.754a10.983,10.983,0,0,1,10.983,10.983v0ZM764.67577,368.50313a10.983,10.983,0,0,1-10.983,10.983H726.869V536.04633a10.983,10.983,0,0,1-10.983,10.983H678.07922a10.983,10.983,0,0,1-10.983-10.983h0V379.48611H640.27246a10.983,10.983,0,0,1-10.983-10.983h0v-34.005a10.983,10.983,0,0,1,10.983-10.983H753.64a10.983,10.983,0,0,1,11.03564,10.93007l.00012.05289Z" transform="translate(-195.26316 -6.57895)"/><rect class="c" width="689.47368" height="786.84211"/></svg>